<svg version="1.1" id="Layer_1" xmlns="http://www.w3.org/2000/svg" xmlns:xlink="http://www.w3.org/1999/xlink" x="0px" y="0px"
	 width="100%" viewBox="0 0 1024 1024" enable-background="new 0 0 1024 1024" xml:space="preserve">
<path fill="#D4AF37" opacity="1.000000" stroke="none" 
	d="
M366.558716,437.335327 
	C355.973328,413.128815 350.010681,388.195496 347.566498,362.267731 
	C344.302063,327.638641 345.378479,293.064331 347.909576,258.486420 
	C348.186584,254.702286 348.007202,250.640121 350.186646,246.324524 
	C352.070648,250.193573 351.960510,253.628006 352.022736,256.976898 
	C352.466431,280.852386 355.092102,304.518127 360.415253,327.756836 
	C369.068268,365.532532 382.779724,401.379028 404.647247,433.624786 
	C417.967529,453.266754 435.896698,468.585388 454.171814,483.422638 
	C478.977417,503.561890 507.199554,517.816528 536.182434,530.716187 
	C561.288147,541.890137 586.645996,552.528320 610.291199,566.713684 
	C623.769104,574.799438 635.911133,584.430481 643.437256,598.496460 
	C659.242859,628.036011 652.619202,662.683533 627.454285,684.840881 
	C606.888977,702.948181 582.312805,712.742126 556.177917,719.264709 
	C536.736328,724.116882 516.994080,727.242188 496.954529,727.690796 
	C460.633057,728.503723 425.179779,724.621399 394.207458,703.357605 
	C374.010162,689.491455 362.980438,669.781982 360.556885,645.217468 
	C359.425964,633.754639 360.407166,622.652771 363.660156,611.652893 
	C369.771393,590.987976 386.742798,576.672852 408.247864,574.870117 
	C422.274872,573.694214 436.231079,574.594360 449.717865,579.171204 
	C452.180054,580.006714 454.940704,580.390198 456.750702,582.696899 
	C456.275665,585.109741 454.166138,584.962463 452.529938,585.498474 
	C446.361847,587.519165 440.036926,589.101685 434.172638,591.974854 
	C409.934601,603.850525 399.981140,627.976074 409.532837,653.127930 
	C422.032257,686.041687 446.201416,705.721008 480.413910,712.636963 
	C519.216431,720.480835 555.567932,713.776123 588.937988,692.142212 
	C606.570251,680.711182 618.515503,665.259460 621.251465,643.984619 
	C623.365723,627.543884 616.199036,614.365601 604.437378,603.666687 
	C589.880676,590.425232 572.579651,581.291443 555.132263,572.556824 
	C522.512451,556.226440 488.985840,541.719788 456.962616,524.196045 
	C431.722412,510.384003 407.733368,494.794373 388.714539,472.686981 
	C379.626770,462.123352 372.529877,450.302002 366.558716,437.335327 
z"/>
<path fill="#D4AF37" opacity="1.000000" stroke="none" 
	d="
M403.328491,924.663208 
	C421.743347,927.396484 438.825684,925.907471 452.970642,912.963074 
	C463.316864,903.495056 469.358154,891.317017 473.693604,878.146362 
	C478.093506,864.779846 480.196472,850.996582 481.781128,837.088928 
	C482.107483,834.224487 482.776123,831.399048 483.320129,828.370972 
	C486.065948,829.454468 486.098846,831.380127 486.468018,833.108337 
	C491.127686,854.923157 492.127472,876.987000 490.683929,899.176941 
	C489.981628,909.972412 489.008148,920.766602 485.612549,931.155579 
	C477.952362,954.592285 462.230957,964.258362 437.814911,960.989563 
	C381.618652,953.466064 331.213318,931.655029 284.991302,899.432495 
	C250.070816,875.088623 220.249756,845.580505 195.867050,810.679565 
	C177.969604,785.061340 164.152100,757.411194 157.146118,726.820251 
	C149.425705,693.109680 151.164398,660.023682 165.922440,628.206604 
	C166.062637,627.904358 166.207123,627.604126 166.348495,627.302429 
	C170.402878,618.650818 171.591843,618.414856 177.461624,625.653931 
	C184.886017,634.810242 194.319397,640.002930 206.095886,641.056580 
	C212.365814,641.617676 212.771576,642.444641 210.210129,648.155762 
	C201.684204,667.165466 195.175644,686.629272 196.469818,707.901855 
	C198.274643,737.568237 208.426346,764.274475 224.408188,789.139587 
	C254.170303,835.444397 294.986115,869.854065 341.021942,898.801697 
	C355.906982,908.161438 371.629364,915.663513 388.326599,921.161438 
	C393.092712,922.730774 397.956512,923.809448 403.328491,924.663208 
z"/>
<path fill="#D4AF37" opacity="1.000000" stroke="none" 
	d="
M772.747314,868.848633 
	C735.640076,888.447144 696.528625,900.596252 655.330933,905.799194 
	C617.107971,910.626465 578.997864,909.741028 540.916626,903.269470 
	C521.993286,900.053650 512.666382,888.653442 508.831146,871.138306 
	C506.053070,858.451172 503.397766,845.732727 503.744141,832.631104 
	C503.790283,830.885010 503.189240,828.946411 505.000610,827.307129 
	C507.868927,827.919800 508.976715,830.491272 510.495972,832.542053 
	C526.259094,853.820862 545.341980,871.110901 570.204224,881.082947 
	C592.412720,889.990723 615.568298,892.422974 639.349182,890.265015 
	C681.108826,886.475525 718.447266,870.288513 754.397827,849.946899 
	C772.425842,839.746399 789.931824,828.820007 805.162720,814.671631 
	C826.515076,794.837158 843.938354,772.325256 850.057800,743.046387 
	C857.593018,706.993530 846.960388,676.653748 819.777893,652.034973 
	C802.517029,636.402100 781.295227,629.312683 759.127869,624.355713 
	C757.509216,623.993774 755.897095,623.577393 754.319519,623.069580 
	C753.735352,622.881592 753.259338,622.357483 752.838257,622.060242 
	C752.594849,619.991272 754.171143,619.693420 755.271729,619.184326 
	C783.538879,606.108398 811.228638,605.403320 837.817322,623.500854 
	C851.278687,632.663330 860.468506,645.435364 867.185913,660.058777 
	C884.973633,698.780701 885.073975,737.726929 867.716553,776.517090 
	C857.411194,799.547424 841.598267,818.613525 822.512085,834.934204 
	C807.276917,847.961914 790.777832,859.218628 772.747314,868.848633 
z"/>
<path fill="#D4AF37" opacity="1.000000" stroke="none" 
	d="
M817.395386,550.799805 
	C828.345581,546.616394 834.544678,537.777283 840.618591,529.062439 
	C844.599121,523.351318 847.536865,516.916504 850.988281,510.832306 
	C852.712524,507.792725 854.392944,504.710144 856.372314,501.839508 
	C857.819641,499.740479 859.142029,496.564209 862.317017,497.392822 
	C865.485657,498.219788 865.759216,501.535339 866.251709,504.349121 
	C868.887085,519.406677 863.661804,532.653442 856.347290,545.206970 
	C839.756348,573.681335 815.923706,592.677979 783.230591,599.469482 
	C765.367676,603.180298 747.737244,602.578552 730.944397,594.627991 
	C722.557739,590.657288 715.298279,585.140442 710.112976,577.222290 
	C705.807800,570.647949 705.952454,564.091736 710.059143,557.518982 
	C712.376343,553.810181 715.206238,550.533508 718.710632,547.909912 
	C722.977173,544.715759 727.313110,541.613647 731.642700,538.504578 
	C739.733826,532.694214 740.006531,529.718506 733.023010,522.951599 
	C723.567078,513.789001 722.233887,503.811340 728.542664,491.085175 
	C732.145996,483.816498 737.029602,477.488373 742.752319,471.883698 
	C752.465881,462.370728 763.584961,454.752014 775.950745,449.063843 
	C782.746094,445.938080 785.808289,446.782135 789.988953,452.909851 
	C796.432617,462.354736 805.713806,469.193054 812.768433,478.079651 
	C817.237976,483.709900 821.632446,489.369476 824.391846,496.048401 
	C830.580505,511.027252 828.397766,519.587769 816.006775,529.987183 
	C813.344971,532.221252 810.219971,533.995483 808.614990,537.304626 
	C806.848694,540.946350 806.310791,544.663147 808.476685,548.282715 
	C810.468567,551.611694 813.822021,551.093079 817.395386,550.799805 
z"/>
<path fill="#D4AF37" opacity="1.000000" stroke="none" 
	d="
M163.291443,531.365479 
	C161.049545,509.786255 167.758499,491.048340 179.610031,474.115021 
	C189.379425,460.156586 201.385773,448.388885 218.019196,442.622955 
	C236.112991,436.350800 249.400146,442.737518 256.257812,460.629822 
	C260.351105,471.309601 260.591278,482.431763 260.442291,493.616943 
	C260.353455,500.284760 260.345459,506.944092 261.105408,513.580750 
	C261.256897,514.903748 261.297119,516.258484 261.624512,517.538269 
	C262.247742,519.974609 262.914673,522.607483 265.726227,523.359192 
	C268.686279,524.150513 270.384338,521.919861 271.804047,519.902344 
	C273.811646,517.049438 275.542053,513.998108 277.333496,510.997284 
	C279.891571,506.712341 282.047638,502.141724 285.733215,498.644714 
	C291.585999,493.091370 297.023224,494.336609 300.005981,501.848938 
	C304.784027,513.882690 303.494537,525.761902 298.619232,537.342651 
	C287.568024,563.593689 268.836853,581.522522 240.535110,587.331177 
	C203.819122,594.866699 168.584534,569.092346 163.291443,531.365479 
z"/>
<path fill="#D4AF37" opacity="1.000000" stroke="none" 
	d="
M376.626160,775.416931 
	C348.988800,755.002319 329.005707,729.083191 316.279053,697.587219 
	C309.497284,680.803650 303.881561,656.873047 305.129608,649.938965 
	C307.788574,651.871338 308.263245,654.731384 309.188965,657.180054 
	C317.229553,678.448181 328.651550,697.627686 343.954376,714.502808 
	C362.599365,735.063599 384.842010,750.537048 410.117798,761.792053 
	C450.220490,779.649353 492.107147,784.760498 535.559631,780.005859 
	C581.280396,775.002991 622.289734,758.829346 658.072998,729.800232 
	C680.508301,711.599792 696.969421,688.865295 708.625793,662.533630 
	C709.659790,660.197998 710.234863,657.445801 713.310486,656.047302 
	C714.860046,658.427002 714.746887,660.786804 714.513367,663.261658 
	C711.898804,690.967163 699.651062,714.608643 682.752991,735.910828 
	C663.055359,760.742126 637.099854,777.424255 608.411926,790.161743 
	C575.066101,804.967346 540.021545,812.374939 503.672211,812.576416 
	C457.893738,812.830200 414.749817,803.089661 376.626160,775.416931 
z"/>
<path fill="#D4AF37" opacity="1.000000" stroke="none" 
	d="
M311.799744,233.747818 
	C318.068268,233.122513 323.854523,232.449173 329.654541,231.929077 
	C331.557556,231.758423 333.842407,230.588013 335.321930,232.423615 
	C336.838593,234.305252 335.287201,236.224792 334.416626,237.971252 
	C324.867157,257.128693 309.126129,267.320892 288.159302,270.191315 
	C275.666229,271.901642 264.064056,268.357666 252.443451,264.765869 
	C244.410538,262.282990 244.177994,262.514679 242.381546,270.857605 
	C237.196259,294.939026 244.822571,315.915222 257.940948,335.501160 
	C271.425781,355.634155 288.160004,373.151672 303.630981,391.688477 
	C314.770264,405.035156 325.132080,418.920868 329.778564,436.131317 
	C330.887756,440.239685 332.170593,444.316864 331.060822,448.665619 
	C328.851776,448.639008 328.305481,447.089325 327.657867,445.833710 
	C316.613159,424.420410 298.310791,409.870148 279.896057,395.481628 
	C262.443848,381.845306 244.424484,368.953491 228.623642,353.265350 
	C210.337341,335.109497 202.748657,312.705200 200.643982,287.691040 
	C199.471298,273.753632 199.908325,259.742432 197.949631,245.835007 
	C195.877472,231.121948 189.888123,218.876740 178.050537,209.634598 
	C176.046982,208.070328 173.364532,206.975098 172.531494,203.521042 
	C176.986954,200.862701 181.935867,200.867477 186.808868,201.063629 
	C211.216202,202.046097 234.019196,208.518784 255.225098,220.806412 
	C272.536316,230.837280 291.255768,235.366211 311.799744,233.747818 
z"/>
<path fill="#D4AF37" opacity="1.000000" stroke="none" 
	d="
M719.831787,354.828857 
	C709.211365,366.139648 698.732361,377.100891 688.496704,388.284912 
	C680.126709,397.430420 675.528015,408.743225 671.005615,420.064758 
	C670.143188,422.223541 669.981934,425.016907 667.042847,425.866211 
	C665.053711,424.126862 665.781555,422.033997 665.958313,420.161377 
	C668.025879,398.255035 676.306946,378.627747 688.085938,360.307739 
	C702.046631,338.594299 716.768311,317.297638 726.359070,293.118561 
	C732.594727,277.397888 735.983276,261.363281 731.722290,244.323074 
	C728.124268,229.934357 726.057373,228.551788 712.940063,234.810333 
	C701.249146,240.388306 689.306091,244.969025 676.074951,244.162796 
	C656.447205,242.966782 641.544067,233.222443 629.857849,217.934845 
	C629.059509,216.890488 628.251770,215.778259 628.404663,214.168030 
	C630.027954,211.861725 632.583008,212.773041 634.750244,212.763840 
	C645.581970,212.717926 656.345215,212.585968 667.012512,210.029160 
	C682.750977,206.256882 696.183533,197.944260 709.391418,189.210480 
	C725.143372,178.794495 741.007996,168.741669 759.627808,164.075867 
	C766.937012,162.244308 774.344971,161.304123 781.845581,161.014984 
	C783.607483,160.947067 785.550781,160.601074 787.203125,162.332886 
	C786.833618,165.289383 784.431274,167.133118 782.521973,168.918808 
	C766.943054,183.489594 763.133911,201.230698 767.779785,221.440186 
	C770.956299,235.257706 773.477661,249.184296 773.115540,263.441986 
	C772.580017,284.529846 765.442505,303.053101 751.676697,319.144989 
	C741.384399,331.176453 730.962891,343.078827 719.831787,354.828857 
z"/>
<path fill="#D4AF37" opacity="1.000000" stroke="none" 
	d="
M592.413757,221.431824 
	C591.787903,217.218201 591.230652,213.435287 590.743835,209.643326 
	C590.689514,209.220139 591.035522,208.745560 591.217224,208.234711 
	C593.739380,207.870285 594.743103,209.943863 596.024475,211.265900 
	C617.381775,233.301971 624.701416,260.103088 622.742310,290.079193 
	C620.941650,317.629211 612.825806,344.006836 608.003662,370.990662 
	C604.309021,391.664795 602.397705,412.614716 606.225708,433.563354 
	C608.625977,446.698792 616.023926,457.546295 623.537720,468.137512 
	C637.988220,488.506500 654.073853,507.691620 667.591003,528.743713 
	C678.590149,545.874023 688.942810,563.318420 694.788574,583.043884 
	C703.091980,611.062561 696.167542,635.265320 676.560425,656.292358 
	C671.674744,661.531860 666.579346,666.579346 660.501465,670.491028 
	C659.021057,671.443787 657.666321,672.735657 655.336304,672.584595 
	C655.374939,669.264526 657.819702,667.790466 659.575134,666.042236 
	C669.978333,655.681335 678.683044,644.355469 682.504517,629.763977 
	C686.708618,613.711487 684.854919,598.055603 680.226746,582.510864 
	C672.860718,557.770203 658.721191,536.845337 642.866455,516.943054 
	C632.074951,503.396576 620.330811,490.619690 610.067261,476.644409 
	C597.374329,459.361115 586.231812,441.285217 581.608704,419.942474 
	C577.912170,402.877716 580.139221,386.131866 584.581360,369.581940 
	C593.295105,337.117554 599.189880,304.299438 597.619385,270.500244 
	C596.861633,254.191620 595.365295,237.951569 592.413757,221.431824 
z"/>
<path fill="#D4AF37" opacity="1.000000" stroke="none" 
	d="
M569.652954,159.158371 
	C584.118408,166.158783 598.166687,173.113953 609.976013,183.626694 
	C607.978882,186.658340 606.066345,185.700623 604.354614,185.431549 
	C590.712830,183.287125 577.217896,180.338364 563.461914,178.776779 
	C498.686218,171.423492 436.530945,178.902069 378.540070,210.711853 
	C374.217712,213.082779 369.787415,215.256821 365.451508,217.499527 
	C363.659241,214.862869 365.384247,213.798584 366.454010,212.735901 
	C388.807007,190.531281 412.927643,170.651215 441.959473,157.700363 
	C482.886810,139.443039 524.026611,138.100861 565.162964,157.272812 
	C566.518677,157.904648 567.925537,158.426620 569.652954,159.158371 
z"/>
<path fill="#D4AF37" opacity="1.000000" stroke="none" 
	d="
M415.101685,122.035904 
	C433.975128,110.311638 453.744232,102.121552 475.456451,98.389648 
	C502.140991,93.803101 527.447021,98.475616 552.169739,108.161758 
	C565.072083,113.216789 577.381897,119.487556 588.559998,127.776062 
	C590.059082,128.887665 592.182312,129.685318 592.198669,132.403961 
	C590.265869,133.766418 588.139221,133.152420 586.079712,132.808472 
	C561.711243,128.738571 537.161682,126.791252 512.477356,127.410873 
	C459.176483,128.748810 409.247864,142.087067 363.569641,170.126785 
	C362.298096,170.907333 360.960114,171.590256 359.608368,172.223053 
	C359.220123,172.404800 358.674774,172.250916 356.652893,172.250916 
	C374.718567,152.811935 393.227203,135.786118 415.101685,122.035904 
z"/>
<path fill="#D4AF37" opacity="1.000000" stroke="none" 
	d="
M507.970886,270.563965 
	C502.783325,279.865173 494.088593,283.654907 484.731110,281.290771 
	C476.775146,279.280731 473.370636,273.403534 472.035034,266.197296 
	C471.305359,262.260162 469.327118,260.942352 465.843536,260.400757 
	C458.105225,259.197693 450.482971,257.433929 442.978241,255.187454 
	C439.932159,254.275650 437.032623,253.067337 434.501495,251.053070 
	C431.454773,248.628494 430.871307,245.408112 432.077209,242.067795 
	C433.215363,238.915253 436.051971,237.686035 439.325989,237.813034 
	C445.044159,238.034866 450.415894,239.955383 455.892090,241.357193 
	C458.794403,242.100128 461.683990,242.930542 464.625519,243.469177 
	C466.658020,243.841354 469.180573,244.628510 469.743896,241.341919 
	C470.230255,238.504074 469.314484,236.406036 466.264191,235.702530 
	C461.237793,234.543213 456.213806,233.372452 451.177856,232.255890 
	C447.409058,231.420288 443.804901,230.102631 440.445129,228.255341 
	C436.433563,226.049698 434.973083,222.445908 436.143616,218.085464 
	C437.349762,213.592407 441.137787,213.043930 444.947571,213.371429 
	C451.135834,213.903397 456.877258,216.368469 462.780792,218.081161 
	C467.034027,219.315063 468.172180,217.855453 467.970032,213.786865 
	C467.729340,208.943939 466.333649,204.651581 463.285065,200.888977 
	C462.657410,200.114349 461.988098,199.352814 461.493164,198.495636 
	C460.446259,196.682587 460.624481,194.947159 462.268341,193.566803 
	C463.957336,192.148529 465.444641,193.125458 466.700073,194.275665 
	C471.794678,198.943146 473.834320,204.961594 474.241211,211.685013 
	C474.743805,219.989746 475.832489,221.186600 484.047211,221.315750 
	C489.547729,221.402222 494.976318,220.463654 500.380615,219.393463 
	C503.863556,218.703781 504.271942,216.126266 504.476776,213.432007 
	C504.861603,208.370300 506.101440,203.588669 508.664185,199.189026 
	C509.332581,198.041611 510.023499,196.880325 510.880096,195.875473 
	C512.424500,194.063812 514.311951,192.987640 516.474487,194.843094 
	C518.363220,196.463562 517.973145,198.326935 516.579834,200.152588 
	C514.024170,203.501373 512.066284,207.160202 511.340057,211.350006 
	C510.708496,214.993652 512.044617,216.529694 515.761414,215.051117 
	C520.261414,213.260956 524.829224,211.694977 529.652954,211.070587 
	C533.387390,210.587189 537.170471,210.332016 539.106140,214.577301 
	C541.157227,219.075699 538.941650,222.388550 535.560364,224.970352 
	C530.304565,228.983368 523.903442,230.529770 517.837769,232.827545 
	C514.761475,233.992889 508.910919,234.037323 510.792938,239.101883 
	C512.491943,243.674026 516.895142,239.856598 519.948364,239.202469 
	C524.816528,238.159561 529.505066,236.290939 534.364563,235.191330 
	C538.367859,234.285477 542.145203,234.944122 543.889221,239.411285 
	C545.450562,243.410583 543.499207,248.307037 539.214966,250.319580 
	C532.267700,253.583054 524.952271,255.980179 517.434265,257.445648 
	C512.204346,258.465088 508.672455,260.281952 509.156036,266.380768 
	C509.254486,267.622162 508.498840,268.931274 507.970886,270.563965 
z"/>
<path fill="#D4AF37" opacity="1.000000" stroke="none" 
	d="
M307.079132,369.942383 
	C292.861023,357.587158 278.387207,345.983643 267.902039,330.423645 
	C258.559235,316.558929 253.315002,301.355133 252.687149,284.593536 
	C252.537125,280.588562 253.885605,278.967682 258.044983,280.336365 
	C284.440826,289.022339 307.881592,282.367706 329.509460,266.442657 
	C333.421356,263.562225 333.429993,263.573975 337.678986,262.790527 
	C329.421570,281.472656 323.385742,300.096313 320.123474,319.607819 
	C316.857056,339.144226 319.262939,358.545715 321.192413,378.986694 
	C314.957184,376.913422 311.389404,373.161224 307.079132,369.942383 
z"/>
<path fill="#D4AF37" opacity="1.000000" stroke="none" 
	d="
M637.849365,254.077820 
	C636.351257,251.140182 634.593872,248.689911 634.320557,245.405441 
	C637.105835,244.569000 638.720093,246.346420 640.508057,247.259949 
	C653.678772,253.989594 667.290649,258.970764 682.378662,258.894684 
	C693.136169,258.840424 702.927734,255.315109 712.596985,251.156509 
	C717.802612,248.917664 719.318054,249.799088 719.138916,255.514572 
	C718.303833,282.149811 708.931885,305.814392 693.507324,327.211670 
	C686.405334,337.063660 678.731262,346.499207 670.083923,355.070984 
	C668.643982,356.498322 667.222229,359.047516 664.823975,358.058105 
	C662.516785,357.106293 662.915161,354.351044 662.946289,352.259552 
	C663.263123,330.984863 661.095581,310.107422 653.914856,289.895691 
	C649.556091,277.627014 644.029358,265.918793 637.849365,254.077820 
z"/>
<path fill="#D4AF37" opacity="1.000000" stroke="none" 
	d="
M554.851562,1004.825317 
	C541.475769,1017.975586 527.018433,1020.184143 510.375214,1011.362549 
	C495.678162,1003.572510 485.041443,991.602600 476.894806,977.289368 
	C476.519257,976.629578 476.517181,975.757202 476.337280,974.966675 
	C478.880005,973.331177 480.691711,975.043823 482.455933,975.964539 
	C487.512360,978.603455 492.794861,980.531433 498.365540,981.702271 
	C509.954071,984.137939 519.653625,979.245300 524.331726,968.382996 
	C530.252686,954.634766 527.294006,941.300598 521.957031,928.219849 
	C518.034973,918.607056 512.428711,909.951843 506.124573,901.727051 
	C504.974915,900.227234 503.143433,898.959473 503.502045,896.636292 
	C505.104675,895.323364 506.461456,896.473267 507.642120,897.147400 
	C529.186646,909.447876 548.479736,924.164246 559.987488,946.983215 
	C569.271118,965.391724 569.357605,988.664856 554.851562,1004.825317 
z"/>
<path fill="#D4AF37" opacity="1.000000" stroke="none" 
	d="
M223.845779,604.583740 
	C249.830627,604.248291 269.594360,591.782288 287.019653,574.560730 
	C295.308716,566.368530 303.416962,557.994263 312.693817,550.884949 
	C316.283752,548.133789 320.246368,546.020325 324.510559,544.497925 
	C327.015442,543.603699 329.523346,543.201050 332.201080,544.444397 
	C331.914886,545.215149 331.884735,545.862122 331.569946,546.062988 
	C316.312897,555.797607 308.003052,571.584473 297.332520,585.310059 
	C290.080841,594.637939 282.864868,603.971436 274.051971,611.961487 
	C256.290680,628.064392 236.408905,631.300842 214.362564,622.244751 
	C199.630005,616.192932 187.390152,606.548523 176.061966,595.605957 
	C175.153305,594.728271 173.945419,593.889465 174.515060,591.164734 
	C190.242371,598.129272 206.147614,604.051575 223.845779,604.583740 
z"/>
<path fill="#D4AF37" opacity="1.000000" stroke="none" 
	d="
M644.488159,544.528931 
	C651.132751,552.405518 657.077454,560.255066 658.667786,570.487305 
	C655.980225,571.386536 655.136841,569.845581 654.426758,568.676147 
	C641.771729,547.833801 621.337280,536.923645 600.576233,526.458496 
	C586.012085,519.117004 571.192871,512.283020 556.998535,504.210693 
	C531.222168,489.551605 511.429382,469.791901 502.418610,440.723511 
	C500.193542,433.545563 498.061127,426.350250 499.197144,418.727600 
	C499.470154,416.895538 499.367462,414.224976 501.773834,413.770905 
	C504.390961,413.277100 504.689697,416.060211 505.594177,417.673462 
	C507.640442,421.323303 509.055115,425.293518 509.896881,429.354065 
	C513.130493,444.951965 522.724670,456.487457 533.558167,467.327515 
	C553.163452,486.944672 577.513977,499.419373 601.312073,512.798157 
	C616.857239,521.537292 631.847351,531.170959 644.488159,544.528931 
z"/>
<path fill="#D4AF37" opacity="1.000000" stroke="none" 
	d="
M400.077209,334.896790 
	C394.679199,328.607086 390.553864,322.005310 388.985565,314.109863 
	C387.970245,308.998322 388.982513,307.928925 394.160522,307.861145 
	C403.322083,307.741180 412.583801,307.257904 421.373810,310.328644 
	C433.073883,314.415955 442.365387,321.688782 448.390839,333.332764 
	C449.586090,324.376740 442.590881,311.798706 434.266052,307.307068 
	C425.209045,302.420441 415.870575,300.784149 405.920044,304.675842 
	C403.180878,305.747101 400.143555,307.357758 397.063171,305.176819 
	C397.383392,301.858154 399.930634,301.269989 401.992554,300.604340 
	C414.326324,296.622742 426.585114,296.489624 437.182007,304.739380 
	C449.500214,314.329163 455.791382,327.123749 454.016113,343.166718 
	C453.490509,347.916809 450.986908,350.774872 446.142822,351.416046 
	C428.096130,353.804871 413.250275,347.182220 400.077209,334.896790 
z"/>
<path fill="#D4AF37" opacity="1.000000" stroke="none" 
	d="
M572.523376,302.686279 
	C560.747314,297.810730 549.962585,299.375854 539.831360,305.964020 
	C531.696472,311.254028 528.923035,319.520050 527.348633,328.769562 
	C529.862976,328.671753 530.399536,327.027740 531.103943,325.881104 
	C539.753357,311.801056 553.099304,306.173645 568.815247,305.018646 
	C573.439758,304.678802 578.121582,305.100922 582.776550,305.200317 
	C586.868835,305.287720 588.021851,307.463715 586.834717,311.135345 
	C583.712219,320.793457 579.035706,329.647217 571.281860,336.293823 
	C560.062683,345.910980 546.829224,350.281860 532.030396,349.057526 
	C524.782471,348.457886 522.721558,346.631592 522.202332,339.558807 
	C520.362427,314.493744 539.010559,288.746368 571.025818,297.216827 
	C573.559998,297.887299 576.640320,298.488190 577.756042,301.649323 
	C576.520020,304.019470 574.645935,303.108704 572.523376,302.686279 
z"/>
<path fill="#D4AF37" opacity="1.000000" stroke="none" 
	d="
M575.590942,942.375977 
	C572.528381,936.136658 567.549988,931.595459 563.973816,926.198364 
	C566.465271,924.052673 568.097229,925.513184 569.642334,926.166199 
	C586.692932,933.372803 603.950378,936.696472 621.905884,929.418152 
	C625.188293,928.087585 626.144287,929.787903 625.867920,932.815979 
	C624.330444,949.657288 608.357727,968.249817 591.712097,972.916321 
	C587.827942,974.005127 586.516479,972.300903 585.841553,969.094482 
	C583.876953,959.761353 581.149780,950.722778 575.590942,942.375977 
z"/>
<path fill="#D4AF37" opacity="1.000000" stroke="none" 
	d="
M456.950653,67.697464 
	C482.644012,60.088989 511.302734,70.708221 517.120483,82.455109 
	C481.885712,76.338432 448.360565,78.245895 417.996460,97.443733 
	C415.477203,94.055267 417.679443,92.850716 418.985413,91.633301 
	C430.016022,81.350624 441.901855,72.383560 456.950653,67.697464 
z"/>
<path fill="#D4AF37" opacity="1.000000" stroke="none" 
	d="
M492.673126,349.975830 
	C482.742554,349.573090 476.653503,343.872742 476.330170,335.100616 
	C476.057983,327.715851 481.668243,321.559082 489.383636,320.775543 
	C496.642151,320.038422 503.091492,324.376373 504.869110,331.191376 
	C506.703491,338.224060 503.267731,345.778900 496.846497,348.691895 
	C495.649445,349.234894 494.337372,349.524292 492.673126,349.975830 
z"/>
<path fill="#D4AF37" opacity="1.000000" stroke="none" 
	d="
M482.827209,369.005920 
	C481.643677,361.201599 485.810669,355.514221 493.811035,353.499359 
	C498.995697,352.193665 505.399933,355.862488 507.302490,361.228333 
	C509.475525,367.356903 506.863831,374.227753 501.306305,377.002960 
	C495.199799,380.052277 487.656403,377.731598 483.968781,371.640167 
	C483.541595,370.934479 483.276245,370.130859 482.827209,369.005920 
z"/>
<path fill="#D4AF37" opacity="1.000000" stroke="none" 
	d="
M500.796021,402.181732 
	C495.204285,402.132141 491.987701,399.414703 490.493378,394.607269 
	C489.336090,390.883942 490.298462,387.469330 493.385559,385.228668 
	C496.575195,382.913574 500.404236,381.919373 504.247406,383.563110 
	C506.152893,384.378143 507.665741,386.017548 505.670013,388.274200 
	C501.162537,393.371033 501.143738,393.354401 506.456970,397.832916 
	C506.058990,400.883423 503.710022,401.612640 500.796021,402.181732 
z"/>
</svg>